<?xml version="1.0" standalone="no"?>
<!DOCTYPE svg PUBLIC "-//W3C//DTD SVG 20010904//EN"
 "http://www.w3.org/TR/2001/REC-SVG-20010904/DTD/svg10.dtd">
<svg version="1.0" xmlns="http://www.w3.org/2000/svg"
 width="3475.000000pt" height="2059.000000pt" viewBox="0 0 3475.000000 2059.000000"
 preserveAspectRatio="xMidYMid meet">

<g transform="translate(0.000000,2059.000000) scale(0.100000,-0.100000)"
fill="#000000" stroke="none">
<path d="M20381 17674 c-343 -602 -619 -1099 -615 -1103 5 -4 995 -63 2199
-130 1205 -67 2219 -125 2255 -129 72 -7 166 1 -3020 -263 -1004 -83 -1825
-152 -1826 -152 -1 -1 -358 -564 -794 -1252 -436 -687 -802 -1263 -813 -1279
l-21 -29 -11 34 c-7 19 -176 573 -375 1232 l-364 1197 -38 0 c-21 0 -1119 -67
-2440 -150 -1322 -82 -3377 -210 -4567 -285 -1190 -74 -2167 -137 -2170 -141
-3 -3 -223 -389 -487 -857 -392 -694 -479 -853 -465 -859 9 -3 709 -50 1556
-103 847 -53 1776 -112 2065 -131 289 -18 1022 -65 1630 -104 1247 -79 1566
-100 2100 -134 206 -13 2090 -133 4187 -267 2097 -134 3810 -245 3808 -247 -2
-2 -271 -22 -597 -43 -879 -57 -4353 -283 -7748 -504 -1647 -107 -3132 -204
-3300 -215 -576 -38 -4285 -279 -4563 -297 -152 -9 -282 -20 -287 -23 -20 -12
-818 -1491 -807 -1494 7 -2 336 -23 732 -46 396 -23 974 -57 1285 -76 311 -18
1769 -106 3240 -194 1471 -88 2932 -176 3245 -195 314 -19 1929 -115 3590
-215 1661 -99 3045 -183 3075 -187 63 -7 -961 -76 -12650 -853 -1988 -132
-3625 -241 -3637 -242 -19 -3 -103 -148 -498 -862 -261 -473 -473 -861 -471
-863 2 -2 856 -62 1897 -133 1042 -71 2189 -150 2549 -175 360 -24 1085 -74
1610 -110 525 -36 1051 -72 1169 -80 175 -13 216 -14 226 -3 7 7 294 542 640
1188 640 1198 665 1244 671 1238 1 -2 170 -575 374 -1273 204 -699 374 -1273
378 -1277 4 -3 540 -45 1192 -91 652 -47 1926 -139 2832 -204 906 -65 1645
-119 1643 -121 -2 -2 -340 -28 -752 -58 -2846 -206 -4173 -302 -4443 -320
-135 -10 -249 -20 -253 -24 -6 -6 435 -1541 599 -2088 l25 -82 5678 0 c5665 0
5679 0 5832 20 703 94 1456 269 2164 504 980 325 1747 717 2434 1245 1044 800
1632 1591 1825 2454 103 459 144 1103 91 1432 -67 419 -221 872 -452 1328
-303 597 -672 1082 -1062 1396 l-95 76 50 8 c598 98 1146 274 1689 542 250
123 442 233 630 358 997 667 1658 1625 1975 2862 209 818 225 1452 49 1988
-284 864 -1091 1450 -2392 1736 -445 98 -871 154 -1557 203 -122 8 -1319 12
-4580 15 l-4416 4 -623 -1097z m7146 -2004 c240 -14 351 -39 507 -116 319
-158 562 -496 631 -879 24 -131 22 -342 -5 -478 -58 -298 -204 -571 -452 -848
-231 -258 -561 -447 -971 -554 -403 -105 -806 -142 -1462 -132 -307 5 -1039
37 -1138 50 -32 4 255 577 881 1757 168 316 377 716 464 888 l160 312 61 1
c754 17 995 17 1324 -1z m-2846 -6215 c355 -62 681 -319 867 -682 221 -432
181 -903 -119 -1386 -244 -394 -649 -725 -1044 -856 -195 -64 -275 -75 -550
-75 -361 0 -2189 25 -2194 30 -13 13 598 1244 889 1791 105 197 295 546 423
775 l232 418 706 0 c576 0 722 -3 790 -15z"/>
<path d="M9682 18618 c-413 -691 -803 -1351 -799 -1355 7 -6 7812 -494 7853
-491 l31 3 -257 960 c-141 528 -260 972 -264 988 l-6 27 -3240 0 -3239 0 -79
-132z"/>
<path d="M8570 4634 c-591 -40 -2400 -161 -4020 -268 -1620 -108 -2969 -199
-2999 -203 l-55 -8 -402 -750 -403 -750 3936 -3 c2166 -1 3940 1 3944 5 9 10
1085 2012 1095 2036 4 11 1 17 -7 16 -8 -1 -498 -34 -1089 -75z"/>
</g>
</svg>
