<?xml version="1.0" standalone="no"?>
<!DOCTYPE svg PUBLIC "-//W3C//DTD SVG 20010904//EN"
 "http://www.w3.org/TR/2001/REC-SVG-20010904/DTD/svg10.dtd">
<svg version="1.0" xmlns="http://www.w3.org/2000/svg"
 width="360.000000pt" height="515.000000pt" viewBox="0 0 360.000000 515.000000"
 preserveAspectRatio="xMidYMid meet">

<g transform="translate(0.000000,515.000000) scale(0.100000,-0.100000)"
fill="#000000" stroke="none">
<path d="M2059 4803 c-59 -59 -112 -119 -119 -133 -10 -20 -5 -18 27 13 21 20
43 37 47 37 16 0 -4 -95 -54 -266 -62 -209 -179 -562 -188 -568 -4 -2 -47 5
-97 15 -110 23 -259 24 -363 4 -46 -9 -115 -34 -172 -62 -87 -42 -107 -58
-248 -197 -85 -83 -175 -180 -200 -214 -87 -123 -186 -384 -227 -604 -14 -77
-36 -265 -51 -435 l-7 -71 -73 -73 c-41 -41 -74 -82 -74 -92 0 -26 39 -61 107
-95 l59 -30 13 -83 c7 -46 23 -117 37 -159 26 -84 126 -270 215 -403 l60 -88
-15 -42 c-27 -81 -66 -233 -81 -321 -18 -104 -20 -252 -4 -262 11 -6 199 172
199 190 0 4 -7 3 -15 -4 -13 -11 -15 -2 -15 69 0 84 16 215 30 240 5 10 22 0
66 -40 236 -217 547 -379 818 -429 97 -18 280 -8 371 21 81 25 216 91 294 143
29 20 57 36 62 36 26 0 426 -364 533 -485 l59 -67 -67 -67 c-36 -36 -66 -71
-66 -77 0 -12 109 -64 177 -84 22 -7 52 -10 65 -7 13 4 65 49 116 101 l93 94
-16 38 c-42 101 -302 379 -573 613 l-133 115 106 106 c58 58 105 109 105 114
0 4 -46 -35 -101 -88 -56 -53 -110 -101 -119 -106 -13 -7 -45 12 -146 87 -262
194 -587 399 -862 541 -90 46 -161 86 -159 88 2 2 48 -12 103 -32 142 -51 378
-109 527 -129 162 -22 449 -17 542 9 132 37 180 70 345 236 161 160 188 198
216 303 42 159 -11 429 -122 622 -115 198 -259 376 -417 512 -239 206 -410
323 -634 433 -79 39 -143 74 -143 78 0 4 38 122 85 262 191 569 247 789 205
797 -9 2 -61 -42 -121 -104z m-583 -1074 c83 -15 197 -49 212 -63 14 -13 -24
-133 -133 -419 -132 -349 -402 -998 -425 -1021 -5 -5 -75 16 -162 49 -136 51
-218 73 -340 91 l-38 5 0 93 c0 116 34 439 61 569 41 202 147 474 219 560 40
47 146 102 248 127 88 21 264 26 358 9z m460 -173 c252 -134 576 -384 731
-565 197 -230 322 -464 358 -668 27 -154 19 -256 -27 -364 -17 -42 -26 -50
-86 -77 -114 -52 -206 -65 -431 -59 -222 5 -381 30 -585 92 -218 66 -654 238
-663 262 -6 14 2 33 182 448 109 252 242 579 330 815 24 63 48 127 54 143 6
15 16 27 22 27 7 0 58 -24 115 -54z m-1098 -1708 c52 -23 96 -47 99 -54 6 -17
-69 -204 -83 -204 -13 0 -184 301 -184 325 0 6 26 -5 168 -67z m375 -174 c189
-88 414 -208 577 -307 239 -146 600 -396 600 -416 0 -14 -136 -61 -209 -71
-98 -14 -222 -12 -307 6 -188 38 -419 142 -596 268 -166 118 -338 283 -338
324 0 12 18 68 41 124 23 57 45 113 50 126 5 12 11 22 15 22 3 0 79 -34 167
-76z"/>
</g>
</svg>
